<?xml version="1.0" encoding="UTF-8"?>
<svg id="Calque_1" data-name="Calque 1" xmlns="http://www.w3.org/2000/svg" viewBox="0 0 929.79 1197.6">
  <defs>
    <style>
      .cls-1 {
        fill: #fff;
      }
    </style>
  </defs>
  <path class="cls-1" d="M433.39,1.05C283.79,11.45,149.09,92.55,69.89,220.05c-23.2,37.3-41.4,78.7-52.9,120.4-30.5,110.7-19.7,227.8,30.5,329.5,19.1,38.7,37.2,66,67.6,102,3.4,4.1,75.3,97.6,159.6,207.7,91.8,119.9,155.5,202.2,158.8,205.2,18.6,17,44.2,17,62.8,0,3.3-3,67-85.3,158.8-205.2,84.3-110.1,156.2-203.6,159.6-207.7,30.4-36,48.5-63.3,67.6-102,56.6-114.7,62.9-250.2,17.4-369.5-35.3-92.3-96.7-168.9-179.8-224.2C637.39,21.35,533.49-5.85,433.39,1.05ZM489.29,226.45c22.4,2.9,39.8,8.1,60.1,18,55.3,26.8,93.1,75.6,106.2,137.4,2.5,11.6,2.7,14.5,2.8,36.6,0,26.7-1,34.5-7,55.5-16.1,56.1-58.6,103.2-113,125.3-20.1,8.2-36.5,12-59.2,13.9-29.4,2.5-59.3-2.3-87.8-13.9-54.4-22.1-96.9-69.2-113-125.3-6-21-7-28.8-7-55.5.1-22.1.3-25,2.8-36.6,11.2-52.7,40.6-96.5,84.2-125.2,17.7-11.6,43.7-22.7,63.7-27.1,20.9-4.6,46.7-5.8,67.2-3.1Z"/>
</svg>